<svg width="117.575px" height="80.34286041259764px" xmlns="http://www.w3.org/2000/svg" viewBox="191.2125 34.82856979370118 117.575 80.34286041259764" style="background: rgba(0, 0, 0, 0);" preserveAspectRatio="xMidYMid"><defs><filter id="editing-hole" x="-100%" y="-100%" width="300%" height="300%"><feFlood flood-color="#000" result="black"></feFlood><feMorphology operator="dilate" radius="2" in="SourceGraphic" result="erode"></feMorphology><feGaussianBlur in="erode" stdDeviation="4" result="blur"></feGaussianBlur><feOffset in="blur" dx="2" dy="2" result="offset"></feOffset><feComposite operator="atop" in="offset" in2="black" result="merge"></feComposite><feComposite operator="in" in="merge" in2="SourceGraphic" result="inner-shadow"></feComposite></filter></defs><g filter="url(#editing-hole)"><g transform="translate(213.32997620105743, 88.6449966430664)"><path d="M1.88-7.86L1.88-18.95L1.88-18.95Q1.88-21.98 2.38-23.40L2.38-23.40L2.38-23.40Q2.88-24.82 3.47-25.49L3.47-25.49L3.47-25.49Q4.75-26.94 7.22-26.96L7.22-26.96L7.22-26.96Q10.67-26.94 11.67-23.92L11.67-23.92L11.67-23.92Q12.25-22.18 12.25-19.28L12.25-19.28L12.25-16.33L9.17-16.33L9.17-19.30L9.17-19.30Q9.17-21.86 8.89-22.76L8.89-22.76L8.89-22.76Q8.61-23.66 8.22-23.95L8.22-23.95L8.22-23.95Q7.83-24.25 7.22-24.25L7.22-24.25L7.22-24.25Q5.96-24.25 5.49-23.06L5.49-23.06L5.49-23.06Q5.01-21.87 5.01-19.31L5.01-19.31L5.01-7.78L5.01-7.78Q5.01-4.75 5.44-3.55L5.44-3.55L5.44-3.55Q5.87-2.35 7.11-2.35L7.11-2.35L7.11-2.35Q8.34-2.35 8.76-3.56L8.76-3.56L8.76-3.56Q9.17-4.77 9.17-7.80L9.17-7.80L9.17-10.75L12.28-10.75L12.28-7.83L12.28-7.83Q12.28-3.63 11.13-1.66L11.13-1.66L11.13-1.66Q9.99 0.32 7.14 0.32L7.14 0.32L7.14 0.32Q4.30 0.32 3.09-1.72L3.09-1.72L3.09-1.72Q1.88-3.75 1.88-7.86L1.88-7.86ZM15.77-7.66L15.77-19.41L15.77-19.41Q15.77-23.95 17.41-25.64L17.41-25.64L17.41-25.64Q18.69-26.97 21.15-26.97L21.15-26.97L21.15-26.97Q24.72-26.97 25.72-24.04L25.72-24.04L25.72-24.04Q26.31-22.30 26.31-19.41L26.31-19.41L26.31-7.66L26.31-7.66Q26.31-3.50 25.14-1.60L25.14-1.60L25.14-1.60Q23.98 0.30 21.06 0.30L21.06 0.30L21.06 0.30Q18.15 0.30 16.96-1.60L16.96-1.60L16.96-1.60Q15.77-3.51 15.77-7.66L15.77-7.66ZM23.17-7.63L23.17-19.59L23.17-19.59Q23.17-22.15 22.77-23.21L22.77-23.21L22.77-23.21Q22.36-24.28 21.12-24.28L21.12-24.28L21.12-24.28Q19.87-24.28 19.39-23.19L19.39-23.19L19.39-23.19Q18.91-22.10 18.91-19.60L18.91-19.60L18.91-7.63L18.91-7.63Q18.91-4.59 19.33-3.49L19.33-3.49L19.33-3.49Q19.75-2.39 21.04-2.39L21.04-2.39L21.04-2.39Q22.33-2.39 22.75-3.50L22.75-3.50L22.75-3.50Q23.17-4.62 23.17-7.63L23.17-7.63ZM38.08-4.74L41.70-26.64L45.62-26.64L45.62 0L42.84 0L42.84-10.69L43.09-20.65L39.48-0.05L36.65-0.05L32.88-20.65L33.13-10.69L33.13 0L30.36 0L30.36-26.64L34.27-26.64L38.08-4.74ZM49.97 0L49.97-26.64L57.99-26.64L57.99-24.02L53.08-24.02L53.08-15.61L57.69-15.61L57.69-12.96L53.08-12.96L53.08 0L49.97 0ZM65.65-15.74L68.39-26.64L71.46-26.64L67.16-11.19L67.16 0L64.03 0L64.03-11.19L59.40-26.64L62.44-26.64L65.59-15.74L65.65-15.74Z" fill="#ccc"></path></g></g><style>text {
  font-size: 64px;
  font-family: Arial Black;
  dominant-baseline: central;
  text-anchor: middle;
}</style></svg>